# xmcd CD database file
#
# Track frame offsets:
#	150
#	14427
#	30150
#	45552
#	59877
#	76252
#	90927
#	106552
#	121002
#	135277
#	148077
#	162252
#	179100
#	193252
#	207675
#	220852
#	233502
#	243877
#	260002
#	273525
#	286950
#	300877
#	316275
#	331002
#
# Disc length: 4614 seconds
#
# Revision: 0
# Processed by: cddbd v1.5.1PL0 Copyright (c) Steve Scherf et al.
# Submitted via: CDex 1.51
#
DISCID=48120418
DTITLE=Victor Jazz Histroy  - From New Orleans To Swing
DYEAR=1996
DGENRE=Jazz
TTITLE0=Original Dixieland Jazzband - Livery Stable Blues
TTITLE1=Jelly Roll Morton's Red Hot Peppers - Sidwalk Blues
TTITLE2=Jelly Roll Morton's Red Hot Peppers - Dr. Jazz
TTITLE3=Johnny Dodd's Washboard Band - Bucktown Stomp
TTITLE4=Eddie Condon's Hot Shots - I'm Gonna Stomp Mr. henry Lee
TTITLE5=Mound City Blue Blowers - Hello Lola
TTITLE6=Hoagy Carmichael and His Orchestra - Rockin' Chair
TTITLE7=Red and Miff's Stompers - Feeling No Pain
TTITLE8=Joe Venuti's BLue Four - The Wild Dog
TTITLE9=Fletcher Henderson and His Orchestra - St. Louis Shuffle
TTITLE10=Duke Ellington and His Orchestra - Black and Tan Fantasy
TTITLE11=Charlie Johnson and His Orchestra - The Boy in The Boat
TTITLE12=Henry Allen and His New York Orchestra - It Should Be You
TTITLE13=Mills Blues Rhytm Band - Heebie Jeebies
TTITLE14=Gene Gifford and His Orchestra - New Orleans Twist
TTITLE15=Benny Goodman Trio - After You've Gone
TTITLE16=Wingy Manone and His Orchestra - Limehouse Blues
TTITLE17=Benny Goodman and His Orchestra - Blues Skies
TTITLE18=Duke ELlington and His Famous Orchestra - Harlem Air Shaft
TTITLE19=Bennie Moten's Kansas City Orchestra - Kansas City Breakdown
TTITLE20=Blache Calloway and Her Joy Boys - Casey Jones BLues
TTITLE21=Bennie Moten's Kansas City Orchestra - Moten Swing
TTITLE22=Count Basie, His Instrumentalists and Rythm - Swingin' The Blues
TTITLE23=Jimmy Witherspoon - Hootie Blues
EXTD=YEAR: 1996
EXTT0=
EXTT1=
EXTT2=
EXTT3=
EXTT4=
EXTT5=
EXTT6=
EXTT7=
EXTT8=
EXTT9=
EXTT10=
EXTT11=
EXTT12=
EXTT13=
EXTT14=
EXTT15=
EXTT16=
EXTT17=
EXTT18=
EXTT19=
EXTT20=
EXTT21=
EXTT22=
EXTT23=
PLAYORDER=
